<svg width="110" height="145" viewBox="0 0 110 145" fill="none" xmlns="http://www.w3.org/2000/svg">
<g filter="url(#filter0_f_1303_2090)">
<path d="M34.917 76.0116C49.1889 76.0116 60.7586 66.7335 60.7586 55.2884C60.7586 43.8432 49.1889 34.5651 34.917 34.5651C20.6452 34.5651 9.0755 43.8432 9.0755 55.2884C9.0755 66.7335 20.6452 76.0116 34.917 76.0116Z" fill="#FA9E42"/>
<path d="M34.917 80.3289C52.1622 80.3289 66.1422 69.1179 66.1422 55.2883C66.1422 41.4588 52.1622 30.2477 34.917 30.2477C17.6718 30.2477 3.69183 41.4588 3.69183 55.2883C3.69183 69.1179 17.6718 80.3289 34.917 80.3289Z" stroke="#FA9E42" stroke-width="3.87855" stroke-linecap="round" stroke-dasharray="0.39 25.6"/>
<g filter="url(#filter1_f_1303_2090)">
<path d="M32.0219 51.0494C41.1816 47.148 46.3629 40.5972 43.5949 36.4179C40.8268 32.2387 31.1576 32.0135 21.998 35.9149C12.8384 39.8164 7.65697 46.3672 10.425 50.5464C13.1931 54.7257 22.8623 54.9509 32.0219 51.0494Z" fill="#F8E36F"/>
</g>
</g>
<g filter="url(#filter2_df_1303_2090)">
<g filter="url(#filter3_d_1303_2090)">
<path d="M43.9443 84.8504L43.9443 26.1112C43.9443 22.1036 45.9295 18.2601 49.4632 15.4263C52.997 12.5925 57.7897 11.0005 62.7871 11.0005C67.7845 11.0005 72.5773 12.5925 76.111 15.4263C79.6447 18.2601 81.6299 22.1036 81.6299 26.1112L81.6299 86.1094C86.5164 89.1827 90.1949 93.3202 92.225 98.0267C94.255 102.733 94.5507 107.809 93.0764 112.647C91.6022 117.485 88.4206 121.879 83.9126 125.304C79.4045 128.729 73.761 131.04 67.6577 131.96C65.4425 132.431 63.1393 132.577 60.8592 132.391C53.9834 132.248 47.3442 130.348 41.9081 126.968C36.4721 123.589 32.5231 118.906 30.6358 113.602C28.7486 108.298 29.0217 102.649 31.4153 97.4777C33.809 92.3066 38.1983 87.8831 43.9443 84.8513V84.8504Z" fill="url(#paint0_linear_1303_2090)"/>
<path d="M29.9338 106.495C29.9338 109.88 30.7482 113.167 32.3544 116.266C33.906 119.259 36.131 121.958 38.9678 124.288C40.365 125.436 41.9041 126.483 43.5423 127.399C45.1947 128.324 46.9633 129.125 48.799 129.78C52.6116 131.14 56.674 131.873 60.8732 131.959L60.8936 131.959L60.9139 131.961C61.5318 132.011 62.162 132.037 62.7872 132.037C64.3919 132.037 65.984 131.87 67.5191 131.542L67.5389 131.537L67.5592 131.534C71.1874 130.992 74.6414 129.952 77.8251 128.444C80.9426 126.968 83.7061 125.09 86.0386 122.861C88.3886 120.616 90.2217 118.09 91.4873 115.355C92.7971 112.524 93.4612 109.543 93.4612 106.495C93.4612 104.498 93.1722 102.51 92.6021 100.585C92.0481 98.7151 91.2254 96.893 90.1569 95.1697C89.1074 93.477 87.8174 91.8737 86.3228 90.4044C84.8368 88.9436 83.146 87.6127 81.2975 86.4487L81.0917 86.319V86.1091L81.0917 26.1108C81.0917 24.1289 80.6078 22.2066 79.6534 20.3971C78.7315 18.6492 77.4117 17.0793 75.7304 15.7311C74.0492 14.3829 72.0916 13.3244 69.912 12.5851C67.6557 11.8198 65.2585 11.4317 62.7872 11.4317C60.3159 11.4317 57.9187 11.8198 55.6624 12.5851C53.4828 13.3244 51.5252 14.3829 49.8439 15.7311C48.1627 17.0793 46.8428 18.6492 45.9209 20.3971C44.9666 22.2066 44.4827 24.1289 44.4827 26.1108L44.4827 84.8502V85.0828L44.2406 85.2107C39.9318 87.4879 36.3403 90.605 33.8544 94.2249C32.5908 96.0651 31.6159 98.027 30.957 100.056C30.278 102.147 29.9338 104.313 29.9338 106.495ZM29.3954 106.495C29.3954 97.4467 35.179 89.4827 43.9444 84.8502L43.9444 26.1108C43.9444 17.7652 52.3805 11 62.7872 11C73.1939 11 81.63 17.7652 81.63 26.1108L81.63 86.1091C89.161 90.8516 93.9996 98.2204 93.9996 106.495C93.9996 119.168 82.6506 129.716 67.6579 131.959C66.1041 132.291 64.4717 132.469 62.7872 132.469C62.1361 132.469 61.4935 132.442 60.8595 132.39C43.4065 132.034 29.3954 120.577 29.3954 106.495Z" fill="white" fill-opacity="0.5"/>
</g>
<path d="M37.9415 107.084C37.9405 103.431 39.1964 99.8475 41.5711 96.7293C43.9457 93.611 47.347 91.0785 51.4007 89.4105V35.8482H74.012V89.4101C77.9257 91.0205 81.2339 93.4379 83.5964 96.4135C85.9589 99.3892 87.2904 102.816 87.454 106.341C87.6176 109.866 86.6074 113.363 84.5272 116.471C82.4471 119.579 79.3721 122.187 75.6185 124.026C71.8648 125.866 67.568 126.87 63.1699 126.936C58.7719 127.002 54.4312 126.127 50.5943 124.402C46.7575 122.677 43.5629 120.163 41.3391 117.119C39.1153 114.076 37.9426 110.612 37.9415 107.084Z" fill="white"/>
</g>
<defs>
<filter id="filter0_f_1303_2090" x="0.976854" y="27.5327" width="67.8803" height="55.5112" filterUnits="userSpaceOnUse" color-interpolation-filters="sRGB">
<feFlood flood-opacity="0" result="BackgroundImageFix"/>
<feBlend mode="normal" in="SourceGraphic" in2="BackgroundImageFix" result="shape"/>
<feGaussianBlur stdDeviation="0.387855" result="effect1_foregroundBlur_1303_2090"/>
</filter>
<filter id="filter1_f_1303_2090" x="1.92259" y="25.3729" width="50.1748" height="36.2186" filterUnits="userSpaceOnUse" color-interpolation-filters="sRGB">
<feFlood flood-opacity="0" result="BackgroundImageFix"/>
<feBlend mode="normal" in="SourceGraphic" in2="BackgroundImageFix" result="shape"/>
<feGaussianBlur stdDeviation="3.87855" result="effect1_foregroundBlur_1303_2090"/>
</filter>
<filter id="filter2_df_1303_2090" x="21.6383" y="0.140069" width="87.8759" height="144.741" filterUnits="userSpaceOnUse" color-interpolation-filters="sRGB">
<feFlood flood-opacity="0" result="BackgroundImageFix"/>
<feColorMatrix in="SourceAlpha" type="matrix" values="0 0 0 0 0 0 0 0 0 0 0 0 0 0 0 0 0 0 127 0" result="hardAlpha"/>
<feOffset dx="3.87855" dy="0.775709"/>
<feGaussianBlur stdDeviation="5.81782"/>
<feColorMatrix type="matrix" values="0 0 0 0 0 0 0 0 0 0 0 0 0 0 0 0 0 0 0.25 0"/>
<feBlend mode="normal" in2="BackgroundImageFix" result="effect1_dropShadow_1303_2090"/>
<feBlend mode="normal" in="SourceGraphic" in2="effect1_dropShadow_1303_2090" result="shape"/>
<feGaussianBlur stdDeviation="0.387855" result="effect2_foregroundBlur_1303_2090"/>
</filter>
<filter id="filter3_d_1303_2090" x="21.6383" y="0.140069" width="87.8759" height="144.741" filterUnits="userSpaceOnUse" color-interpolation-filters="sRGB">
<feFlood flood-opacity="0" result="BackgroundImageFix"/>
<feColorMatrix in="SourceAlpha" type="matrix" values="0 0 0 0 0 0 0 0 0 0 0 0 0 0 0 0 0 0 127 0" result="hardAlpha"/>
<feOffset dx="3.87855" dy="0.775709"/>
<feGaussianBlur stdDeviation="5.81782"/>
<feColorMatrix type="matrix" values="0 0 0 0 0.501961 0 0 0 0 0.501961 0 0 0 0 0.501961 0 0 0 0.302 0"/>
<feBlend mode="normal" in2="BackgroundImageFix" result="effect1_dropShadow_1303_2090"/>
<feBlend mode="normal" in="SourceGraphic" in2="effect1_dropShadow_1303_2090" result="shape"/>
</filter>
<linearGradient id="paint0_linear_1303_2090" x1="85.8599" y1="60.1954" x2="24.1272" y2="78.4313" gradientUnits="userSpaceOnUse">
<stop stop-color="white" stop-opacity="0.596"/>
<stop offset="1" stop-color="#F7F7F7" stop-opacity="0.204"/>
</linearGradient>
</defs>
</svg>
